<?xml version="1.0" encoding="utf-8"?>
<!-- Generator: Adobe Illustrator 23.0.4, SVG Export Plug-In . SVG Version: 6.00 Build 0)  -->
<svg version="1.1" id="Capa_1" xmlns="http://www.w3.org/2000/svg" xmlns:xlink="http://www.w3.org/1999/xlink" x="0px" y="0px"
	 viewBox="0 0 516.4 516.4" style="enable-background:new 0 0 516.4 516.4;" xml:space="preserve">
<g>
	<path d="M353.8,0c-89.9,0-162.6,72.7-162.6,162.6c0,19.1,3.8,38.2,9.6,57.4L0,420.8v95.6h95.6V459H153v-57.4h57.4l86.1-86.1
		c17.2,5.7,36.3,9.6,57.4,9.6c89.9,0,162.6-72.7,162.6-162.6S443.7,0,353.8,0z M401.6,172.1c-32.5,0-57.4-24.9-57.4-57.4
		s24.9-57.4,57.4-57.4S459,82.2,459,114.8S434.1,172.1,401.6,172.1z"/>
</g>
</svg>
