<?xml version="1.0" encoding="utf-8"?>
<!-- Generator: Adobe Illustrator 23.0.4, SVG Export Plug-In . SVG Version: 6.00 Build 0)  -->
<svg version="1.1" id="Layer_1" xmlns="http://www.w3.org/2000/svg" xmlns:xlink="http://www.w3.org/1999/xlink" x="0px" y="0px"
	 viewBox="0 0 512 512" style="enable-background:new 0 0 512 512;" xml:space="preserve">
<path d="M431.7,64h-69.3V42.7c0-23.5-19.1-42.7-42.7-42.7h-128C168.1,0,149,19.1,149,42.7V64H79.7C47.3,64,21,90.3,21,122.7V176
	c0,8.8,7.2,16,16,16h26.7v261.3c0,32.4,26.3,58.7,58.7,58.7H389c32.4,0,58.7-26.3,58.7-58.7V192h26.7c8.8,0,16-7.2,16-16v-53.3
	C490.3,90.3,464,64,431.7,64z M191.7,405.3c0,11.8-9.6,21.3-21.3,21.3c-11.8,0-21.3-9.6-21.3-21.3v-128c0-11.8,9.6-21.3,21.3-21.3
	c11.8,0,21.3,9.6,21.3,21.3V405.3z M191.7,42.7h128V64h-128V42.7z M277,405.3c0,11.8-9.6,21.3-21.3,21.3c-11.8,0-21.3-9.6-21.3-21.3
	v-128c0-11.8,9.6-21.3,21.3-21.3c11.8,0,21.3,9.6,21.3,21.3V405.3z M362.3,405.3c0,11.8-9.6,21.3-21.3,21.3s-21.3-9.6-21.3-21.3
	v-128c0-11.8,9.6-21.3,21.3-21.3s21.3,9.6,21.3,21.3V405.3z"/>
</svg>
