<?xml version="1.0" encoding="utf-8"?>
<!-- Generator: Adobe Illustrator 23.0.4, SVG Export Plug-In . SVG Version: 6.00 Build 0)  -->
<svg version="1.1" id="Layer_1" xmlns="http://www.w3.org/2000/svg" xmlns:xlink="http://www.w3.org/1999/xlink" x="0px" y="0px"
	 viewBox="0 0 100 100" style="enable-background:new 0 0 100 100;" xml:space="preserve">
<style type="text/css">
	.st0{display:none;}
	.st1{display:inline;}
	.st2{display:none;fill:#575754;}
</style>
<g class="st0">
	<g class="st1">
		<g>
			<path d="M89.1,29.3c1.1,0,1.9-0.9,1.9-1.9v-21c0-3.2-2.6-5.8-5.8-5.8H14.8C11.6,0.5,9,3.1,9,6.3v87.4c0,3.2,2.6,5.8,5.8,5.8h70.4
				c3.2,0,5.8-2.6,5.8-5.8V79.5c0-1.1-0.9-1.9-1.9-1.9c-1.1,0-1.9,0.9-1.9,1.9v14.2c0,1.1-0.9,1.9-1.9,1.9H14.8
				c-1.1,0-1.9-0.9-1.9-1.9V6.3c0-1.1,0.9-1.9,1.9-1.9h70.4c1.1,0,1.9,0.9,1.9,1.9v21C87.1,28.4,88,29.3,89.1,29.3z"/>
		</g>
	</g>
	<g class="st1">
		<g>
			<path d="M50,10.9c-9.8,0-17.8,8-17.8,17.8c0,5.1,2.1,9.7,5.6,12.9c0.1,0.1,0.1,0.1,0.2,0.2c3.2,2.9,7.4,4.7,12,4.7
				s8.8-1.8,12-4.7c0.1-0.1,0.1-0.1,0.2-0.2c3.4-3.2,5.6-7.8,5.6-12.9C67.8,18.9,59.8,10.9,50,10.9z M50,42.7
				c-3.2,0-6.1-1.1-8.4-2.8c1.7-3,4.9-4.9,8.4-4.9c3.5,0,6.7,1.9,8.4,4.9C56.1,41.6,53.2,42.7,50,42.7z M46.9,28v-1.3
				c0-1.7,1.4-3.1,3.1-3.1c1.7,0,3.1,1.4,3.1,3.1V28c0,1.7-1.4,3.1-3.1,3.1C48.3,31.1,46.9,29.7,46.9,28z M61.2,37
				c-1.4-2.1-3.4-3.8-5.7-4.8C56.4,31,57,29.6,57,28v-1.3c0-3.8-3.1-7-7-7s-7,3.1-7,7V28c0,1.6,0.5,3.1,1.5,4.3
				c-2.3,1-4.3,2.7-5.7,4.8c-1.7-2.3-2.7-5.2-2.7-8.3c0-7.7,6.2-13.9,13.9-13.9s13.9,6.2,13.9,13.9C63.9,31.8,62.9,34.7,61.2,37z"/>
		</g>
	</g>
	<g class="st1">
		<g>
			<path d="M60.4,85.2H50c-1.1,0-1.9,0.9-1.9,1.9s0.9,1.9,1.9,1.9h10.4c1.1,0,1.9-0.9,1.9-1.9S61.5,85.2,60.4,85.2z"/>
		</g>
	</g>
	<g class="st1">
		<g>
			<path d="M60.4,74.4H33c-1.1,0-1.9,0.9-1.9,1.9s0.9,1.9,1.9,1.9h27.5c1.1,0,1.9-0.9,1.9-1.9S61.5,74.4,60.4,74.4z"/>
		</g>
	</g>
	<g class="st1">
		<g>
			<path d="M60.4,63.5H33c-1.1,0-1.9,0.9-1.9,1.9s0.9,1.9,1.9,1.9h27.5c1.1,0,1.9-0.9,1.9-1.9S61.5,63.5,60.4,63.5z"/>
		</g>
	</g>
	<g class="st1">
		<g>
			<path d="M26.1,53.3c-0.4-0.4-0.9-0.6-1.4-0.6c-0.5,0-1,0.2-1.4,0.6c-0.4,0.4-0.6,0.9-0.6,1.4s0.2,1,0.6,1.4
				c0.4,0.4,0.9,0.6,1.4,0.6c0.5,0,1-0.2,1.4-0.6c0.4-0.4,0.6-0.9,0.6-1.4S26.5,53.6,26.1,53.3z"/>
		</g>
	</g>
	<g class="st1">
		<g>
			<path d="M26.1,64.1c-0.4-0.4-0.9-0.6-1.4-0.6c-0.5,0-1,0.2-1.4,0.6c-0.4,0.4-0.6,0.9-0.6,1.4s0.2,1,0.6,1.4
				c0.4,0.4,0.9,0.6,1.4,0.6c0.5,0,1-0.2,1.4-0.6c0.4-0.4,0.6-0.9,0.6-1.4S26.5,64.5,26.1,64.1z"/>
		</g>
	</g>
	<g class="st1">
		<g>
			<path d="M26.1,74.9c-0.4-0.4-0.9-0.6-1.4-0.6c-0.5,0-1,0.2-1.4,0.6c-0.4,0.4-0.6,0.9-0.6,1.4s0.2,1,0.6,1.4
				c0.4,0.4,0.9,0.6,1.4,0.6c0.5,0,1-0.2,1.4-0.6c0.4-0.4,0.6-0.9,0.6-1.4S26.5,75.3,26.1,74.9z"/>
		</g>
	</g>
	<g class="st1">
		<g>
			<path d="M60.4,52.7H33c-1.1,0-1.9,0.9-1.9,1.9s0.9,1.9,1.9,1.9h27.5c1.1,0,1.9-0.9,1.9-1.9S61.5,52.7,60.4,52.7z"/>
		</g>
	</g>
</g>
<path class="st2" d="M-6-1.5H-76c-3.3,0-6,2.7-6,6v86.9c0,3.3,2.7,6,6,6H-6c3.3,0,6-2.7,6-6V4.5C0,1.2-2.7-1.5-6-1.5z M-63.1,78
	c-1,0-1.9-0.8-1.9-1.9s0.8-1.9,1.9-1.9s1.9,0.8,1.9,1.9S-62,78-63.1,78z M-63.1,67c-1,0-1.9-0.8-1.9-1.9s0.8-1.9,1.9-1.9
	s1.9,0.8,1.9,1.9S-62,67-63.1,67z M-63.1,56c-1,0-1.9-0.8-1.9-1.9s0.8-1.9,1.9-1.9s1.9,0.8,1.9,1.9S-62,56-63.1,56z M-27,78.1h-28
	c-1.1,0-2-0.9-2-2s0.9-2,2-2h28c1.1,0,2,0.9,2,2S-25.9,78.1-27,78.1z M-27,67.1h-28c-1.1,0-2-0.9-2-2s0.9-2,2-2h28c1.1,0,2,0.9,2,2
	S-25.9,67.1-27,67.1z M-27,56.1h-28c-1.1,0-2-0.9-2-2s0.9-2,2-2h28c1.1,0,2,0.9,2,2S-25.9,56.1-27,56.1z M-28.2,39.7
	c-0.8-4.4-3.8-8-7.9-9.7c1.3-1.3,2.1-3,2.1-5c0-3.9-3.1-7-7-7s-7,3.1-7,7c0,1.9,0.8,3.7,2.1,5c-4,1.7-7.1,5.3-7.9,9.7
	C-57,36.4-59,31.9-59,27c0-9.9,8.1-18,18-18s18,8.1,18,18C-23,31.9-25,36.4-28.2,39.7z"/>
<path d="M60.8,52.4C68.6,48.5,74,40.4,74,31C74,17.7,63.3,7,50,7S26,17.7,26,31c0,9.4,5.4,17.5,13.2,21.4C19.6,57.7,5,77,5,100h90
	C95,77,80.4,57.7,60.8,52.4z"/>
</svg>
