<?xml version="1.0" encoding="utf-8"?>
<!-- Generator: Adobe Illustrator 23.0.4, SVG Export Plug-In . SVG Version: 6.00 Build 0)  -->
<svg version="1.1" id="Layer_1" xmlns="http://www.w3.org/2000/svg" xmlns:xlink="http://www.w3.org/1999/xlink" x="0px" y="0px"
	 viewBox="0 0 100 100" style="enable-background:new 0 0 100 100;" xml:space="preserve">
<style type="text/css">
	.st0{fill:#CCC6C6;}
	.st1{fill:#FFFFFF;}
	.st2{fill:#605D5D;}
</style>
<g>
	<g>
		<circle class="st0" cx="50" cy="50" r="50"/>
	</g>
	<g>
		<path class="st1" d="M81.9,50.5c0,14.9-4.5,27-31,27s-31.6-12.1-31-27c0.5-13.5,9.5-27,31-27C70.4,23.5,81.9,37,81.9,50.5z"/>
		<path class="st2" d="M10.5,34.9c-4.7,4.1-1.4,11.6,4.9,11c3.4-0.3,7.6-2,11.7-5.2c6.3-4.8,8.3-10.2,7.5-14.4
			c-0.3-1.7-1.5-3.1-3.1-3.6c-2.9-0.9-5.4,0.6-11,6.5c-0.8,0.9-2.5,1.9-3.7,2.3C13.9,32.6,11.9,33.7,10.5,34.9z"/>
		<path class="st2" d="M89.5,34.9c4.7,4.1,1.4,11.6-4.9,11c-3.4-0.3-7.6-2-11.7-5.2c-6.3-4.8-8.3-10.2-7.5-14.4
			c0.3-1.7,1.5-3.1,3.1-3.6c2.9-0.9,5.4,0.6,11,6.5c0.8,0.9,2.5,1.9,3.7,2.3C86.1,32.6,88.1,33.7,89.5,34.9z"/>
		<circle class="st2" cx="35.4" cy="50" r="3.5"/>
		<circle class="st2" cx="65.4" cy="50" r="3.5"/>
		<g>
			<path class="st2" d="M52.7,57.6c-0.8,1.4-2.8,1.4-3.6,0v0l-0.7-1.2c-0.5-0.9,0.1-1.9,1.1-1.9h1.4h1.4c1,0,1.6,1.1,1.1,1.9
				L52.7,57.6L52.7,57.6z"/>
			<g>
				<g>
					<path class="st2" d="M42.7,60.4c0.3,2.6,2.9,4.2,5.4,3.2c2.2-0.9,3.2-3.9,3.2-6.1c0-0.6-0.9-0.6-0.9,0c0,1.4-0.5,3-1.3,4.2
						c-1.5,2.2-5.2,1.6-5.5-1.2C43.6,59.9,42.7,59.9,42.7,60.4L42.7,60.4z"/>
				</g>
			</g>
			<g>
				<g>
					<path class="st2" d="M58.2,60.5c-0.4,2.9-4.2,3.3-5.6,1c-0.7-1.1-1.3-2.7-1.3-4c0-0.6-0.9-0.6-0.9,0c0,2.2,1.1,5.2,3.2,6.1
						c2.5,1.1,5.1-0.4,5.5-3.1C59.2,59.9,58.3,59.9,58.2,60.5L58.2,60.5z"/>
				</g>
			</g>
		</g>
	</g>
</g>
</svg>
